<?xml version="1.0" encoding="UTF-8"?>
<!-- Generator: visioncortex VTracer -->
<svg id="svg" version="1.1" xmlns="http://www.w3.org/2000/svg" style="display: block;" viewBox="0 0 1713 598"><path d="M0 0 C10.47273375 -0.6741739 10.47273375 -0.6741739 14.65234375 1.875 C16.65427766 3.9244106 18.37836983 6.0703007 20.12890625 8.3359375 C21.32851465 9.45191307 22.55879072 10.53576371 23.81640625 11.5859375 C27.40843923 14.67888174 30.90175634 17.86539064 34.37890625 21.0859375 C34.93449219 21.600354 35.49007812 22.11477051 36.0625 22.64477539 C37.1942677 23.6929318 38.32594063 24.74119055 39.45751953 25.78955078 C43.99770926 29.9901879 48.56234554 34.16401784 53.12890625 38.3359375 C54.01707031 39.15320312 54.90523437 39.97046875 55.8203125 40.8125 C60.72671694 45.29193489 65.71597723 49.48035957 71.12890625 53.3359375 C71.68578125 52.76746094 72.24265625 52.19898438 72.81640625 51.61328125 C76.98374511 47.39666642 81.19991943 43.3383017 85.69921875 39.48046875 C89.07434626 36.50145749 92.34662058 33.41653862 95.62890625 30.3359375 C103.47187808 22.97969856 103.47187808 22.97969856 107.12890625 19.8359375 C109.74731589 17.56578756 112.3124477 15.25401392 114.8359375 12.87890625 C115.50947266 12.24726563 116.18300781 11.615625 116.87695312 10.96484375 C118.2330622 9.68956237 119.58729086 8.41227787 120.93945312 7.1328125 C121.56529297 6.54371094 122.19113281 5.95460938 122.8359375 5.34765625 C123.39772705 4.81615967 123.9595166 4.28466309 124.53833008 3.73706055 C130.2273324 -1.27432615 136.99216725 -0.09724197 144.12890625 0.3359375 C187.46162787 3.77620425 261.03682929 17.24386054 293.12890625 49.3359375 C293.22319967 51.51399469 293.24633163 53.6951503 293.24243164 55.87524414 C293.24257767 56.55814011 293.24272369 57.24103607 293.24287415 57.94462585 C293.24217501 60.21181364 293.23438265 62.47892024 293.2265625 64.74609375 C293.22469832 66.31408137 293.22327442 67.88206957 293.22227478 69.45005798 C293.21844959 73.58470253 293.20861931 77.71931216 293.1975708 81.85394287 C293.18556207 86.81069467 293.18095444 91.76745811 293.17511749 96.72422028 C293.16540754 104.26148366 293.14625102 111.79867038 293.12890625 119.3359375 C279.92890625 119.3359375 266.72890625 119.3359375 253.12890625 119.3359375 C252.79890625 103.8259375 252.46890625 88.3159375 252.12890625 72.3359375 C220.28913275 58.63518648 186.69127095 46.86046524 152.12890625 42.3359375 C151.24074219 42.17609375 150.35257812 42.01625 149.4375 41.8515625 C145.65265724 41.41608144 143.91749132 41.71682305 140.875 44.10546875 C138.52713501 46.43744294 136.33557773 48.87082701 134.12890625 51.3359375 C132.90103654 52.46466245 131.65160484 53.57051249 130.37890625 54.6484375 C126.80553923 57.71841353 123.33446411 60.88497838 119.87890625 64.0859375 C119.32178955 64.60188477 118.76467285 65.11783203 118.19067383 65.64941406 C117.05754969 66.69898312 115.92449314 67.74862516 114.79150391 68.79833984 C110.74895165 72.53695866 106.68285321 76.25000784 102.62158203 79.96826172 C101.10075749 81.36172902 99.58143301 82.75681501 98.0625 84.15234375 C89.1745661 92.31600228 80.23988632 100.42109169 71.12890625 108.3359375 C68.09163667 106.96983482 65.91975599 105.40519943 63.51953125 103.10546875 C62.84664062 102.46673828 62.17375 101.82800781 61.48046875 101.16992188 C60.78695312 100.50283203 60.0934375 99.83574219 59.37890625 99.1484375 C54.69660478 94.6753263 49.97324061 90.29056287 45.08007812 86.04858398 C41.90251491 83.25946913 38.83140937 80.35944506 35.75390625 77.4609375 C30.74764894 72.76675857 25.70719172 68.12018598 20.58984375 63.546875 C18.25307601 61.44749319 15.93439046 59.33037927 13.62304688 57.203125 C12.59329665 56.25735691 11.56077916 55.31459213 10.52539062 54.375 C8.18812253 52.25185582 5.90250125 50.10663914 3.68359375 47.859375 C2.94367188 47.12976562 2.20375 46.40015625 1.44140625 45.6484375 C0.50748047 44.68357422 0.50748047 44.68357422 -0.4453125 43.69921875 C-7.14170957 39.93586516 -16.51818131 42.93318841 -23.62109375 44.3359375 C-24.74580078 44.55668945 -25.87050781 44.77744141 -27.02929688 45.00488281 C-45.18612506 48.7012729 -62.97293488 53.83621714 -80.49609375 59.8359375 C-81.46482422 60.1669043 -82.43355469 60.49787109 -83.43164062 60.83886719 C-93.12272343 64.25638567 -102.35025111 68.32716165 -111.87109375 72.3359375 C-112.20109375 99.7259375 -112.53109375 127.1159375 -112.87109375 155.3359375 C-97.0772583 155.31237183 -97.0772583 155.31237183 -80.96435547 155.28833008 C-47.25031678 155.24015008 -13.53627795 155.20679721 20.17778624 155.18274151 C25.41718961 155.17898952 30.65659288 155.17510654 35.89599609 155.17114258 C37.46056033 155.16996218 37.46056033 155.16996218 39.05673192 155.16875794 C55.93139091 155.15571456 72.80601914 155.1320666 89.68065991 155.10447911 C107.00381569 155.07639519 124.3269554 155.05975492 141.65013301 155.05367202 C152.33395325 155.04956177 163.01768655 155.0365937 173.70148002 155.0121881 C181.0341009 154.99629403 188.36667704 154.99154544 195.69931389 154.99543337 C199.92581399 154.99734921 204.15216247 154.9944738 208.37863541 154.97832108 C212.2567008 154.96360899 216.13451415 154.96305755 220.0125917 154.97324082 C221.40718392 154.97449743 222.80179255 154.97078815 224.19635297 154.96128795 C244.20966679 154.83300411 261.42522042 160.082676 276.19140625 173.8359375 C287.33123883 185.4435391 292.99455761 199.79881083 293.62890625 215.8359375 C293.04944517 230.93931024 287.81281508 244.71949423 278.12890625 256.3359375 C278.49242187 256.84640625 278.8559375 257.356875 279.23046875 257.8828125 C289.71017769 273.03808389 295.58329932 288.68262649 292.47265625 307.25390625 C289.06467307 323.57769441 280.81372164 337.86321376 266.69140625 347.2109375 C253.35239157 355.05631003 241.98462309 357.64470309 226.60740662 357.57644653 C225.13945903 357.57731971 223.67151176 357.57907276 222.20356613 357.58162487 C218.18770282 357.58608029 214.17194693 357.57811965 210.15609729 357.56806874 C205.81879177 357.55941043 201.48149203 357.56235609 197.1441803 357.56387329 C189.63543202 357.56492064 182.12671857 357.55865975 174.61797905 357.54739761 C163.76168324 357.5311252 152.90540423 357.52593282 142.04909755 357.52342163 C124.43433348 357.51904726 106.81958798 357.50574516 89.20483398 357.48681641 C72.09643649 357.46845093 54.98804404 357.45429769 37.87963867 357.44580078 C36.82460675 357.44527533 35.76957483 357.44474989 34.68257224 357.44420852 C29.38964676 357.44159839 24.09672124 357.43907099 18.8037957 357.43658471 C-25.08784697 357.41586025 -68.9794694 357.38064174 -112.87109375 357.3359375 C-111.95010071 360.51430467 -111.01708364 363.68902446 -110.08203125 366.86328125 C-109.82413818 367.75382202 -109.56624512 368.64436279 -109.30053711 369.56188965 C-107.39062869 376.01560344 -105.0200117 381.8935839 -101.97265625 387.90234375 C-100.87109375 390.3359375 -100.87109375 390.3359375 -100.87109375 393.3359375 C26.17890625 393.3359375 153.22890625 393.3359375 284.12890625 393.3359375 C276.05827922 433.68907263 239.24866195 474.65943716 212.12890625 504.3359375 C211.20949235 505.34882849 210.29022846 506.36185566 209.37109375 507.375 C202.63921561 514.77903187 195.85829605 521.9487052 188.26171875 528.4765625 C186.81901073 529.73430796 185.39736749 531.0165633 183.99609375 532.3203125 C176.16583164 539.59316613 167.69069345 545.96086615 159.12890625 552.3359375 C158.5359375 552.7808252 157.94296875 553.22571289 157.33203125 553.68408203 C135.94027529 569.67167067 112.4774459 582.95596243 87.75390625 593.0234375 C86.21234863 593.657052 86.21234863 593.657052 84.63964844 594.3034668 C73.01678079 598.87641399 66.61614303 598.87455059 55.06640625 593.8984375 C53.96312988 593.43904785 52.85985352 592.9796582 51.72314453 592.50634766 C43.6182337 589.08832869 35.68268152 585.41472454 27.91894531 581.28173828 C26.13262407 580.33790188 24.33278955 579.42616416 22.52734375 578.51953125 C-0.81130477 566.65263445 -22.39214322 550.75479379 -41.87109375 533.3359375 C-42.59723877 532.69591797 -43.32338379 532.05589844 -44.0715332 531.39648438 C-50.378894 525.79553289 -56.42295853 519.97031867 -62.38500977 514.00732422 C-63.93032441 512.4642022 -65.48349821 510.92929444 -67.03710938 509.39453125 C-73.43480776 503.03233964 -79.2441026 496.40041815 -84.87109375 489.3359375 C-85.80587338 488.23410943 -86.74721997 487.13776625 -87.69921875 486.05078125 C-107.89255077 462.89358921 -124.7058247 436.06199411 -137.87109375 408.3359375 C-138.20882812 407.63919922 -138.5465625 406.94246094 -138.89453125 406.22460938 C-149.23180886 384.79224622 -152.77219378 365.81871006 -152.24609375 342.0234375 C-152.21590435 339.61396627 -152.18854468 337.20445786 -152.1640625 334.79492188 C-152.09890173 328.97442939 -151.99928929 323.15536584 -151.87109375 317.3359375 C-150.6409821 317.33504187 -150.6409821 317.33504187 -149.38601971 317.33412814 C-100.79421108 317.29824322 -52.20246442 317.24161815 -3.61071324 317.15801655 C2.22225212 317.14799895 8.05521776 317.13815485 13.88818359 317.12841797 C15.04943426 317.1264766 16.21068492 317.12453522 17.407125 317.12253502 C36.21607634 317.09150415 55.02501547 317.07453133 73.83398759 317.06274328 C93.13015283 317.05033736 112.42625396 317.02284858 131.72237873 316.98132443 C143.63151261 316.95617307 155.54054019 316.94282142 167.44970101 316.94450793 C175.61349888 316.94453766 183.77718837 316.9299321 191.94094402 316.90377322 C196.65277284 316.88910883 201.36437939 316.88094014 206.07622719 316.89013481 C210.3907695 316.8984118 214.7048649 316.88829433 219.01934087 316.86360088 C220.57935535 316.85790947 222.13941208 316.85894477 223.6994139 316.86742505 C236.52771859 316.95745467 236.52771859 316.95745467 247.1875 310.3359375 C247.64253906 309.6759375 248.09757812 309.0159375 248.56640625 308.3359375 C249.03949219 307.6759375 249.51257813 307.0159375 250 306.3359375 C252.3625219 302.15043157 252.52468443 298.08527564 252.12890625 293.3359375 C250.19796732 287.32210963 246.58786378 282.56402161 241.12890625 279.3359375 C236.37076942 277.758879 232.24215083 277.08396719 227.2392664 277.07422447 C226.24958267 277.06823038 226.24958267 277.06823038 225.23990533 277.06211519 C223.0375504 277.0511799 220.83544835 277.05433663 218.6330719 277.0574646 C217.0348547 277.05245952 215.43664003 277.04658311 213.83842891 277.03991187 C209.45322386 277.02412349 205.06808291 277.02068182 200.68285286 277.01926327 C195.95148848 277.0155672 191.22015918 277.00041068 186.48881531 276.98664856 C178.29360382 276.96437843 170.09840482 276.94936365 161.90316963 276.93928146 C150.05424993 276.92469384 138.20537371 276.89915675 126.35647952 276.87095018 C107.13227716 276.82548373 87.90806853 276.7888683 68.68383789 276.7578125 C50.00967306 276.72762637 31.33552355 276.69327579 12.66137695 276.65332031 C11.51023572 276.65085876 10.3590945 276.64839722 9.1730702 276.64586107 C3.39811299 276.63348646 -2.37684404 276.62102993 -8.15180099 276.60853267 C-56.05821114 276.50496706 -103.96463954 276.41630864 -151.87109375 276.3359375 C-151.87109375 263.1359375 -151.87109375 249.9359375 -151.87109375 236.3359375 C-147.0301857 236.33229187 -142.18927765 236.32864624 -137.20167542 236.32489014 C-92.81573369 236.28961792 -48.42985121 236.23459557 -4.04396084 236.15801655 C1.77269447 236.14799902 7.58935007 236.1381549 13.40600586 236.12841797 C14.5640036 236.1264766 15.72200133 236.12453522 16.91508991 236.12253502 C35.66840021 236.09150886 54.42169826 236.07453264 73.17502939 236.06274328 C92.41582894 236.05033492 111.65656421 236.02284062 130.89732319 235.98132443 C142.77113835 235.95618006 154.64484694 235.94282091 166.5186891 235.94450793 C174.65960066 235.94453767 182.80040361 235.92992174 190.94127285 235.90377322 C195.63904885 235.88911692 200.33660213 235.88093324 205.03439713 235.89013481 C209.33727266 235.89842025 213.63970063 235.88827103 217.94250978 235.86360088 C219.49715849 235.85791601 221.05184961 235.85893468 222.60648554 235.86742505 C231.75457612 235.9130958 240.23270026 235.87734595 247.28515625 229.3359375 C247.72859375 228.6759375 248.17203125 228.0159375 248.62890625 227.3359375 C249.325 226.3459375 249.325 226.3459375 250.03515625 225.3359375 C252.3369161 221.1270052 252.52451122 217.08319715 252.12890625 212.3359375 C250.17881903 206.26247307 246.54853472 201.69910616 241.12890625 198.3359375 C236.72878223 196.60776156 233.06137238 196.08337918 228.34669685 196.07422447 C227.35621133 196.06823038 227.35621133 196.06823038 226.345716 196.06211519 C224.13552173 196.05115599 221.92557844 196.05434003 219.71536255 196.0574646 C218.1138836 196.05246088 216.51240719 196.04658486 214.91093433 196.03991187 C210.51206842 196.02410705 206.11326637 196.02068092 201.7143755 196.01926327 C196.97004184 196.01557007 192.22574324 196.00041499 187.48143005 195.98664856 C179.26219169 195.9643694 171.04296579 195.94936005 162.82370377 195.93928146 C150.94001901 195.924699 139.05637768 195.89916338 127.17271839 195.87095018 C107.89250084 195.82547433 88.61227703 195.78886279 69.33203125 195.7578125 C50.6025279 195.72763021 31.87303984 195.69328141 13.14355469 195.65332031 C11.98916374 195.65085876 10.83477279 195.64839722 9.6454003 195.64586107 C3.85418838 195.63348654 -1.93702335 195.62102999 -7.72823501 195.60853267 C-55.77583325 195.504953 -103.82345056 195.41575365 -151.87109375 195.3359375 C-152.22189208 176.32559051 -152.48619462 157.31590223 -152.64827633 138.3029871 C-152.72554442 129.47424538 -152.83082434 120.64751723 -153.00268555 111.82006836 C-153.15245681 104.12355792 -153.24902423 96.42850554 -153.28242117 88.73057836 C-153.30194002 84.65565152 -153.34759374 80.58489454 -153.4570446 76.51130867 C-154.09785922 51.72424385 -154.09785922 51.72424385 -150.40955734 46.11202431 C-146.43799906 42.31714909 -142.06925097 40.83106847 -136.87109375 39.3359375 C-135.1468247 38.47195733 -133.43661654 37.57727516 -131.76171875 36.62109375 C-130.22042084 35.86867485 -128.67341029 35.12785291 -127.12109375 34.3984375 C-126.25315186 33.98932129 -125.38520996 33.58020508 -124.4909668 33.15869141 C-89.91449041 17.24142705 -51.63942996 6.21809058 -13.87109375 1.3359375 C-12.94425781 1.20574219 -12.01742187 1.07554688 -11.0625 0.94140625 C-7.38616729 0.48865592 -3.69013881 0.32023404 0 0 Z M-75.87109375 433.3359375 C-74.37139976 437.08517248 -73.47953274 439.14500584 -71.1484375 442.15625 C-70.61460449 442.85081299 -70.08077148 443.54537598 -69.53076172 444.26098633 C-68.96244629 444.98697021 -68.39413086 445.7129541 -67.80859375 446.4609375 C-67.22223145 447.21721436 -66.63586914 447.97349121 -66.03173828 448.75268555 C-64.31956212 450.95355216 -62.59781412 453.14647063 -60.87109375 455.3359375 C-60.05511719 456.37105469 -59.23914063 457.40617187 -58.3984375 458.47265625 C-53.67102174 464.34975207 -48.67018792 469.93048412 -43.53515625 475.44921875 C-41.22135492 477.9564023 -38.98161174 480.50948144 -36.74609375 483.0859375 C-26.42211443 494.55497357 -14.82077356 504.82564462 -2.50341797 514.09326172 C-0.90981957 515.30645583 0.65498219 516.55718412 2.21875 517.80859375 C16.68613082 529.32046928 32.73399532 538.83762697 49.12890625 547.3359375 C50.40942871 548.00544434 50.40942871 548.00544434 51.71582031 548.68847656 C54.35700374 550.04721334 57.01791828 551.35458968 59.69140625 552.6484375 C60.5002124 553.06440186 61.30901855 553.48036621 62.14233398 553.90893555 C66.29362701 555.8442633 69.08570897 556.771256 73.54296875 555.375 C75.08661041 554.7300941 76.61505809 554.04797468 78.12890625 553.3359375 C78.96703857 552.97298584 79.8051709 552.61003418 80.66870117 552.23608398 C109.07179507 539.69712546 134.65538111 522.59894997 157.546875 501.671875 C159.65318656 499.76631628 161.78450516 497.90339418 163.93359375 496.046875 C168.13391278 492.37755175 172.12580173 488.53134587 176.06640625 484.5859375 C176.76660889 483.8849292 177.46681152 483.1839209 178.18823242 482.46166992 C182.75666573 477.83918486 186.99380734 473.12987732 191.0078125 468.015625 C192.94363639 465.5699985 194.95551359 463.21099205 197.00341797 460.85913086 C202.09362111 454.99103192 206.76884598 448.88394755 211.31640625 442.5859375 C211.89358398 441.78663818 212.47076172 440.98733887 213.06542969 440.16381836 C215.76430085 437.01206789 215.76430085 437.01206789 217.12890625 433.3359375 C120.43890625 433.3359375 23.74890625 433.3359375 -75.87109375 433.3359375 Z " transform="translate(151.87109375,-0.3359375)" style="fill: #070707;"/><path d="M0 0 C34.98 0 69.96 0 106 0 C116.35867551 32.22699048 116.35867551 32.22699048 120.51147461 45.73901367 C122.24775646 51.38340493 123.98745036 57.02673531 125.72828674 62.66972351 C126.5232563 65.24674545 127.31807239 67.82381417 128.11265564 70.4009552 C132.99288938 86.22782616 137.89268286 102.04864371 142.79116821 117.86987305 C144.44271655 123.20416734 146.09382777 128.53859686 147.74487305 133.87304688 C152.9705468 150.75655286 158.19766507 167.63960955 163.42835999 184.52156067 C165.51004645 191.24021455 167.59115136 197.95904853 169.672122 204.67792416 C171.08820439 209.24990271 172.50461924 213.82177767 173.92184448 218.3934021 C185.15931045 254.64362011 185.15931045 254.64362011 190 271 C192.595313 264.69134303 194.96180636 258.36540523 197.046875 251.87109375 C197.330504 250.99791504 197.614133 250.12473633 197.90635681 249.22509766 C198.52740858 247.31222043 199.1469761 245.39886081 199.76522827 243.4850769 C201.52480569 238.0397058 203.29657533 232.59829533 205.06640625 227.15625 C205.64652214 225.37099159 205.64652214 225.37099159 206.23835754 223.54966736 C211.0950927 208.61300587 216.00823392 193.69489059 220.91809464 178.77562714 C222.99129193 172.4754386 225.06342493 166.17489985 227.13567924 159.87440109 C227.65469336 158.29639582 228.17372235 156.71839543 228.69276619 155.14039993 C233.56394327 140.3308624 238.42663988 125.51855225 243.28564453 110.70501709 C244.55475383 106.83597451 245.8242149 102.96704741 247.09375 99.09814453 C247.94531899 96.50293182 248.79688053 93.90771666 249.6484375 91.3125 C249.85999229 90.66776608 250.07154709 90.02303215 250.28951263 89.35876083 C253.1672486 80.58837277 256.04344993 71.81748281 258.91857624 63.0462389 C261.05930491 56.51576099 263.20125976 49.98568595 265.343997 43.45586681 C266.6376753 39.51331011 267.93077241 35.57056496 269.22244263 31.62734985 C270.42637706 27.9519926 271.63181742 24.27713274 272.83840561 20.60264587 C273.28217575 19.25029405 273.72538828 17.89775909 274.16800308 16.54502869 C274.77545859 14.68878827 275.38511421 12.83326827 275.99487305 10.9777832 C276.50608955 9.41867973 276.50608955 9.41867973 277.02763367 7.82807922 C277.93515308 5.18860405 278.96339941 2.59150147 280 0 C314.65 0 349.3 0 385 0 C385 118.8 385 237.6 385 360 C361.24 360 337.48 360 313 360 C312.95446812 333.48293514 312.91779041 306.965903 312.89637566 280.44880867 C312.88615847 268.13040877 312.87228661 255.81203527 312.84912109 243.49365234 C312.82888854 232.72954979 312.81621465 221.96546638 312.81182301 211.20134532 C312.80926486 205.52675489 312.80346523 199.85221913 312.78853989 194.17764664 C312.72304251 168.2823856 313.09743792 142.46762696 314.29847527 116.59718513 C314.80109175 105.71810329 315.14021705 94.89207038 315 84 C312.97546329 90.04783753 310.95339176 96.09649324 308.93310547 102.14575195 C308.25335892 104.18012954 307.57306676 106.21432495 306.89208984 108.24829102 C302.02225789 122.7955409 297.24390915 137.37100571 292.50390625 151.9609375 C285.17464241 174.51819969 277.74199963 197.04084175 270.29541016 219.55960083 C266.46666699 231.13789628 262.64149983 242.71737343 258.81640625 254.296875 C258.24839987 256.01624866 258.24839987 256.01624866 257.66891861 257.77035713 C249.64099998 282.07238086 241.64500808 306.38482794 233.66430664 330.70239258 C233.44263541 331.37778894 233.22096418 332.05318531 232.99257565 332.74904823 C231.97901535 335.83727922 230.96572247 338.92559732 229.95298767 342.01409912 C229.60434158 343.07687073 229.2556955 344.13964233 228.89648438 345.23461914 C228.60012085 346.1384584 228.30375732 347.04229767 227.99841309 347.973526 C226.67491273 351.98543197 225.33592824 355.99221527 224 360 C200.24 360 176.48 360 152 360 C142.77662114 331.17694106 142.77662114 331.17694106 138.5234375 317.37109375 C138.03521435 315.78960989 137.54689948 314.20815434 137.0585022 312.62672424 C135.76417571 308.43426287 134.47162118 304.24125737 133.17956543 300.0480957 C132.36149274 297.3936726 131.54288364 294.73941547 130.72412109 292.08520508 C122.6645523 265.95698298 114.6519862 239.81465145 106.67672729 213.6605835 C101.2293209 195.79713242 95.75659298 177.94175625 90.24609375 160.09765625 C89.96147907 159.17597027 89.6768644 158.25428429 89.38362503 157.30466843 C86.59165615 148.26424612 83.79755072 139.2244872 80.99972439 130.18587589 C79.96960485 126.85738311 78.9403478 123.52862395 77.91121101 120.19982719 C77.21386913 117.94552759 76.51522539 115.69163453 75.81651306 113.4377594 C72.78797958 103.65097998 69.86743059 93.83514726 67 84 C66.92302355 92.8465966 67.11298516 101.61920591 67.6496582 110.44848633 C70.36631194 159.1898357 70.36713972 207.87067599 70.21607983 256.6753093 C70.18173414 267.97999643 70.1658516 279.28469099 70.15097082 290.58941782 C70.12012917 313.72635045 70.06541997 336.86313753 70 360 C46.9 360 23.8 360 0 360 C0 241.2 0 122.4 0 0 Z " transform="translate(604,5)" style="fill: #000000;"/><path d="M0 0 C160.39892665 0 160.39892665 0 189 7 C189.73605469 7.17756836 190.47210937 7.35513672 191.23046875 7.53808594 C205.51608303 11.08420523 219.25459281 17.00205648 231 26 C231.73347656 26.55816406 232.46695312 27.11632812 233.22265625 27.69140625 C247.2876897 39.24741143 255.41500537 56.89256043 257.80371094 74.75708008 C260.00955445 99.96240886 258.56610358 126.65804941 242 147 C241.32066406 147.85335937 240.64132812 148.70671875 239.94140625 149.5859375 C231.64918697 159.43017643 221.35947181 165.44296368 209 169 C206.1171875 169.12890625 206.1171875 169.12890625 204 169 C204 169.66 204 170.32 204 171 C205.01835938 171.12117187 206.03671875 171.24234375 207.0859375 171.3671875 C225.68362047 174.37399852 242.62098035 184.80714047 253.875 199.8125 C268.79819968 222.97795352 270.98284109 254.96576726 265.4375 281.5625 C259.95328913 304.56170331 245.65064702 324.44630175 225.9375 337.5 C160.09891933 377.58756854 69.05541629 360 0 360 C0 241.2 0 122.4 0 0 Z M78 64 C78 89.74 78 115.48 78 142 C85.87875 142.04125 93.7575 142.0825 101.875 142.125 C104.32147949 142.14320801 106.76795898 142.16141602 109.28857422 142.18017578 C140.65633051 142.84632336 140.65633051 142.84632336 168.203125 129.8125 C176.15567521 121.79079718 179 112.21160212 179 101 C178.29747401 92.3281948 176.42420635 85.10904762 170.8125 78.375 C151.69012175 62.22721392 127.79220536 63.71490457 104.125 63.875 C91.193125 63.936875 91.193125 63.936875 78 64 Z M78 204 C78 234.03 78 264.06 78 295 C93.1284375 295.0928125 93.1284375 295.0928125 108.5625 295.1875 C111.71498291 295.21481201 114.86746582 295.24212402 118.11547852 295.27026367 C120.66161722 295.27903937 123.20776019 295.28668073 125.75390625 295.29296875 C127.03744995 295.30831665 128.32099365 295.32366455 129.64343262 295.33947754 C145.91801927 295.34409706 163.26860157 292.4040081 175.546875 280.71484375 C184.90638537 269.66961511 187.69643601 256.30951516 186.8203125 242.08203125 C185.3332058 231.56606248 180.71877219 222.35139861 172.3984375 215.67578125 C158.07660123 205.66915623 141.19077741 203.8333047 124.19140625 203.90234375 C123.01896362 203.90335083 121.846521 203.90435791 120.6385498 203.90539551 C116.27985652 203.91060774 111.92117722 203.92456896 107.5625 203.9375 C97.806875 203.958125 88.05125 203.97875 78 204 Z " transform="translate(1066,5)" style="fill: #000000;"/><path d="M0 0 C0.94359375 0.73089844 1.8871875 1.46179687 2.859375 2.21484375 C8.56132357 6.72246525 13.42777945 11.36710666 18 17 C19.04414062 18.19689453 19.04414062 18.19689453 20.109375 19.41796875 C39.9067388 42.52627098 50.35355729 72.27235794 55 102 C55.17660156 103.02657715 55.35320312 104.0531543 55.53515625 105.11083984 C57.47454842 117.96104457 57.37473661 130.86956536 57.37060547 143.84082031 C57.37036425 147.83168991 57.41130129 151.82181094 57.44921875 155.8125 C57.66252984 204.39856344 45.25856533 252.12144607 10.49316406 287.52978516 C-21.73212656 319.25978845 -67.1793147 329.40584752 -111.16357422 329.0690918 C-147.12373448 328.19314711 -183.42683328 321.7703341 -213 300 C-213.80179688 299.42121094 -214.60359375 298.84242188 -215.4296875 298.24609375 C-234.31303781 283.9133213 -248.42044856 265.58702368 -258 244 C-258.53109375 242.81277344 -259.0621875 241.62554687 -259.609375 240.40234375 C-270.04875012 215.67609185 -275.08000105 188.65791699 -275.203125 161.8671875 C-275.21018463 160.84017227 -275.21724426 159.81315704 -275.22451782 158.75502014 C-275.45535074 115.33526676 -275.45535074 115.33526676 -272 98 C-271.79600586 96.97310059 -271.59201172 95.94620117 -271.38183594 94.88818359 C-265.79140341 67.79452262 -256.34096346 41.18012189 -238 20 C-237.3507959 19.23768066 -237.3507959 19.23768066 -236.68847656 18.45996094 C-209.92588712 -12.79889992 -171.44757308 -27.78615668 -131.13647461 -30.98339844 C-85.69502605 -34.25856587 -36.75486825 -29.53103408 0 0 Z M-136 35 C-137.64935547 35.52787109 -137.64935547 35.52787109 -139.33203125 36.06640625 C-159.10479579 43.04096697 -174.09004776 57.17577607 -183.1875 75.9375 C-201.79877472 116.47156649 -201.5183637 170.73396089 -186.77734375 212.4609375 C-178.40108059 233.41506206 -165.6782739 248.88879197 -145.01171875 258.37109375 C-123.26123739 267.49925342 -97.28122688 267.75159326 -75.125 259.75 C-55.09293129 251.31278569 -40.91292986 237.38033568 -32.37109375 217.27734375 C-15.80749903 176.18590268 -15.45075573 121.07701521 -32.17919922 79.91796875 C-36.16513117 70.60402425 -41.28927014 62.56798876 -48 55 C-48.55300781 54.36449219 -49.10601563 53.72898437 -49.67578125 53.07421875 C-61.63202068 40.20485363 -80.47100239 32.63934528 -97.86279297 31.87402344 C-117.18133587 31.26710101 -117.18133587 31.26710101 -136 35 Z " transform="translate(1656,36)" style="fill: #000000;"/><path d="M0 0 C2.13906899 1.60792319 4.02195232 3.2363239 5.73046875 5.30078125 C5.73046875 5.96078125 5.73046875 6.62078125 5.73046875 7.30078125 C6.41109375 6.57890625 7.09171875 5.85703125 7.79296875 5.11328125 C15.73711747 -2.69809618 23.90216293 -5.73080187 35.10546875 -6.13671875 C43.03094893 -5.92889925 51.66134342 -4.29525255 58.23046875 0.42578125 C64.7292388 7.8993668 66.86128697 15.65012151 66.84399414 25.38598633 C66.84414017 26.07921997 66.84428619 26.77245361 66.84443665 27.48669434 C66.84374326 29.76459954 66.8359779 32.04242168 66.828125 34.3203125 C66.82625878 35.90500341 66.82483584 37.4896949 66.82383728 39.0743866 C66.82002818 43.23527635 66.81021167 47.39613093 66.7991333 51.55700684 C66.78888457 55.80687993 66.78433225 60.05675873 66.77929688 64.30664062 C66.76858791 72.63803874 66.75100417 80.96940156 66.73046875 89.30078125 C58.15046875 89.30078125 49.57046875 89.30078125 40.73046875 89.30078125 C40.68148438 85.45808594 40.6325 81.61539063 40.58203125 77.65625 C40.52791563 73.90629411 40.47064974 70.1563985 40.41308594 66.40649414 C40.37496476 63.81409252 40.34008348 61.22164104 40.30859375 58.62915039 C40.26257541 54.88800315 40.20464293 51.14719422 40.14453125 47.40625 C40.13298004 46.25996628 40.12142883 45.11368256 40.10952759 43.93266296 C40.0567897 31.50973189 40.0567897 31.50973189 35.73046875 20.17578125 C32.28972006 16.95007935 29.60817186 16.96433604 25.05078125 17.015625 C20.65972473 17.55526663 17.955382 20.0321211 14.98046875 23.11328125 C11.02346382 30.03803988 11.40660749 37.44265137 11.3515625 45.19921875 C11.33456802 46.42992096 11.31757355 47.66062317 11.30006409 48.92861938 C11.24708832 52.84428846 11.20667987 56.7599472 11.16796875 60.67578125 C11.12505836 64.61298939 11.07747836 68.55011741 11.02516174 72.48721313 C10.99312214 74.93439481 10.96625814 77.3816505 10.94493103 79.82894897 C10.93144119 80.92744171 10.91795135 82.02593445 10.90405273 83.15771484 C10.88978493 84.61496475 10.88978493 84.61496475 10.87522888 86.10165405 C10.73046875 88.30078125 10.73046875 88.30078125 9.73046875 89.30078125 C7.80379368 89.38826332 5.87395014 89.40775459 3.9453125 89.3984375 C2.19057617 89.39360352 2.19057617 89.39360352 0.40039062 89.38867188 C-0.83130859 89.38029297 -2.06300781 89.37191406 -3.33203125 89.36328125 C-5.18538086 89.35651367 -5.18538086 89.35651367 -7.07617188 89.34960938 C-10.14067242 89.33777733 -13.20507846 89.32129298 -16.26953125 89.30078125 C-16.27539749 88.58161026 -16.28126373 87.86243927 -16.28730774 87.12147522 C-16.34545398 80.31050432 -16.41765451 73.49980811 -16.50524616 66.68915653 C-16.54978233 63.18854685 -16.58907394 59.68804906 -16.6159668 56.18725586 C-16.64719442 52.15319248 -16.70197526 48.11973589 -16.7578125 44.0859375 C-16.76420242 42.84183609 -16.77059235 41.59773468 -16.7771759 40.31593323 C-16.84917937 29.23603468 -16.84917937 29.23603468 -21.7480011 19.62416077 C-24.71458317 17.04392011 -27.30253338 17.01967622 -31.17578125 17.08984375 C-35.83633227 17.55937688 -38.528838 19.43663912 -41.51953125 22.92578125 C-45.62472736 30.84294518 -45.59443498 39.23367908 -45.68359375 47.9921875 C-45.7029599 49.1780394 -45.72232605 50.3638913 -45.74227905 51.5856781 C-45.80169319 55.34480773 -45.84830723 59.10396862 -45.89453125 62.86328125 C-45.93274614 65.42384092 -45.97179988 67.98438821 -46.01171875 70.54492188 C-46.10736316 76.79676455 -46.19252067 83.04868275 -46.26953125 89.30078125 C-50.58201734 89.32964662 -54.89447887 89.3475338 -59.20703125 89.36328125 C-60.43873047 89.37166016 -61.67042969 89.38003906 -62.93945312 89.38867188 C-64.10927734 89.39189453 -65.27910156 89.39511719 -66.484375 89.3984375 C-68.11040649 89.40629272 -68.11040649 89.40629272 -69.76928711 89.41430664 C-72.26953125 89.30078125 -72.26953125 89.30078125 -73.26953125 88.30078125 C-73.36475543 85.43986307 -73.39506451 82.60314504 -73.38305664 79.74194336 C-73.38320267 78.84446884 -73.38334869 77.94699432 -73.38349915 77.02232361 C-73.38279967 74.04089991 -73.37500566 71.05953785 -73.3671875 68.078125 C-73.36532344 66.01689183 -73.36389948 63.95565821 -73.36289978 61.89442444 C-73.35907362 56.45774115 -73.34924251 51.02108439 -73.3381958 45.58441162 C-73.32798378 40.04130411 -73.32340261 34.49819233 -73.31835938 28.95507812 C-73.30762033 18.07029894 -73.29002274 7.18554645 -73.26953125 -3.69921875 C-66.33953125 -3.69921875 -59.40953125 -3.69921875 -52.26953125 -3.69921875 C-50.94953125 -0.72921875 -49.62953125 2.24078125 -48.26953125 5.30078125 C-47.09390625 4.20765625 -45.91828125 3.11453125 -44.70703125 1.98828125 C-32.68847113 -8.5226503 -13.11234628 -8.87242592 0 0 Z " transform="translate(1393.26953125,464.69921875)" style="fill: #010101;"/><path d="M0 0 C-0.55852667 5.4367976 -1.93957617 9.9183367 -4.0625 14.9375 C-4.48499023 15.96327148 -4.48499023 15.96327148 -4.91601562 17.00976562 C-5.6035405 18.67613946 -6.30076175 20.33850727 -7 22 C-11.02822209 21.49096586 -14.74995534 20.90425218 -18.5625 19.5 C-28.93629548 15.69310258 -40.36750278 15.53217508 -50.5703125 19.8203125 C-59.48162487 24.14702686 -64.49678613 30.53410127 -68.10546875 39.85546875 C-72.00631166 53.42600676 -71.07485365 68.1810399 -64.8125 80.875 C-61.56733685 86.26079789 -57.130053 89.58161961 -51.45703125 92.15234375 C-46.49592409 93.36879601 -41.70933415 93.20962657 -36.625 93.125 C-33.11875 93.08375 -29.6125 93.0425 -26 93 C-26 85.41 -26 77.82 -26 70 C-33.26 70 -40.52 70 -48 70 C-48 62.41 -48 54.82 -48 47 C-31.83 47 -15.66 47 1 47 C1 67.79 1 88.58 1 110 C-3.80315198 112.05849371 -7.49343695 113.52362977 -12.4375 114.625 C-13.48808594 114.86476563 -14.53867188 115.10453125 -15.62109375 115.3515625 C-23.8489046 116.93054123 -31.82245921 117.2128839 -40.1875 117.25 C-41.90163086 117.2809375 -41.90163086 117.2809375 -43.65039062 117.3125 C-58.36155222 117.37902871 -72.29241417 113.99896372 -83.37890625 103.81640625 C-96.62377355 88.97577181 -99.88303931 69.33058435 -99.140625 50.09277344 C-98.05886228 33.99404076 -93.26951268 19.07248706 -81 8 C-80.30197266 7.29617188 -80.30197266 7.29617188 -79.58984375 6.578125 C-59.59369996 -12.48453787 -23.63918804 -10.05814264 0 0 Z " transform="translate(1295,438)" style="fill: #010101;"/><path d="M0 0 C8.91 0 17.82 0 27 0 C27.33 15.18 27.66 30.36 28 46 C42.52 46 57.04 46 72 46 C72.33 30.82 72.66 15.64 73 0 C81.91 0 90.82 0 100 0 C100.02254736 15.62878684 100.04097937 31.25756086 100.05181217 46.88635921 C100.05697505 54.14258849 100.06401758 61.39880696 100.07543945 68.6550293 C100.08538656 74.97733856 100.09185349 81.29964001 100.09408849 87.62195688 C100.09539556 90.9715675 100.09848113 94.32115574 100.10573006 97.6707592 C100.1129362 101.40413645 100.11399112 105.13746658 100.11352539 108.87084961 C100.11712067 109.98934296 100.12071594 111.1078363 100.12442017 112.26022339 C100.1230455 113.27129654 100.12167084 114.28236969 100.12025452 115.32408142 C100.12117631 116.20808089 100.1220981 117.09208036 100.12304783 118.0028677 C100 120 100 120 99 121 C97.07332493 121.08748207 95.14348139 121.10697334 93.21484375 121.09765625 C92.16159912 121.09515869 91.10835449 121.09266113 90.02319336 121.09008789 C88.67491455 121.08098389 87.32663574 121.07187988 85.9375 121.0625 C81.668125 121.041875 77.39875 121.02125 73 121 C72.67 104.17 72.34 87.34 72 70 C57.48 70 42.96 70 28 70 C27.67 86.83 27.34 103.66 27 121 C22.730625 121.020625 18.46125 121.04125 14.0625 121.0625 C12.04008179 121.07615601 12.04008179 121.07615601 9.97680664 121.09008789 C8.3969397 121.09383423 8.3969397 121.09383423 6.78515625 121.09765625 C5.15912476 121.10551147 5.15912476 121.10551147 3.50024414 121.11352539 C1 121 1 121 0 120 C-0.09588124 118.44379604 -0.12188033 116.88323546 -0.12025452 115.32408142 C-0.12162918 114.31300827 -0.12300385 113.30193512 -0.12442017 112.26022339 C-0.12082489 111.14173004 -0.11722961 110.02323669 -0.11352539 108.87084961 C-0.11367142 107.70027512 -0.11381744 106.52970062 -0.1139679 105.32365417 C-0.11338895 102.10479057 -0.10835991 98.88596996 -0.10139394 95.66711497 C-0.09515957 92.306526 -0.09455654 88.94593627 -0.09336853 85.58534241 C-0.09025546 79.21757658 -0.0820424 72.84982784 -0.07201904 66.48206955 C-0.06085715 59.23430271 -0.05534726 51.98653507 -0.05032361 44.73876178 C-0.03985977 29.82583009 -0.02151459 14.91292061 0 0 Z " transform="translate(1591,433)" style="fill: #020202;"/><path d="M0 0 C26 0 26 0 27 1 C27.09268999 2.35094982 27.11747326 3.70667091 27.11352539 5.06079102 C27.11344986 5.92160782 27.11337433 6.78242462 27.11329651 7.66932678 C27.10813522 8.60473801 27.10297394 9.54014923 27.09765625 10.50390625 C27.0962413 11.45692123 27.09482635 12.40993622 27.09336853 13.39183044 C27.08775152 16.44875165 27.07519616 19.50560077 27.0625 22.5625 C27.05748719 24.62955624 27.05292391 26.69661362 27.04882812 28.76367188 C27.03777656 33.84247588 27.02050055 38.9212257 27 44 C27.46325684 43.58790283 27.92651367 43.17580566 28.40380859 42.7512207 C29.02078613 42.21070068 29.63776367 41.67018066 30.2734375 41.11328125 C30.88106934 40.57743408 31.48870117 40.04158691 32.11474609 39.48950195 C39.24204294 33.85836519 48.27447798 33.36669598 57 34 C66.40442236 35.63194388 72.94894761 39.9992762 78.75 47.5 C84.24221712 55.81356154 86.61741387 66.10266304 87 76 C87.05994141 77.47533203 87.05994141 77.47533203 87.12109375 78.98046875 C87.4273071 94.05697304 85.48255146 109.46392578 75 121 C67.92606101 128.07393899 60.26945528 130.39009896 50.5 130.5 C39.5782088 130.36544239 32.41576318 126.85728852 24 120 C23.01 122.97 22.02 125.94 21 129 C14.07 129 7.14 129 0 129 C0 86.43 0 43.86 0 0 Z M30.75 61.3125 C26.61132009 67.66832986 26.63446341 73.89693171 26.625 81.25 C26.60050781 82.23613281 26.57601563 83.22226562 26.55078125 84.23828125 C26.52343818 91.15607783 27.64456985 96.89098084 31 103 C34.712366 106.712366 38.04922408 108.13745524 43.25 108.4375 C47.93408844 108.38409834 50.29722573 106.95277427 53.56640625 103.68359375 C59.7550079 96.41578091 60.37022337 85.97058744 59.875 76.75 C58.96004506 68.69626873 56.38410984 62.23824397 50 57 C42.57409069 54.5246969 36.25300692 55.65663177 30.75 61.3125 Z " transform="translate(1484,425)" style="fill: #010101;"/><path d="M0 0 C9.57 0 19.14 0 29 0 C31.32862669 6.96490145 33.65696681 13.92988697 35.98252106 20.89581299 C37.06560559 24.13978954 38.14922132 27.38358642 39.23413086 30.62695312 C40.47936786 34.34970475 41.72216897 38.07326727 42.96484375 41.796875 C43.35341049 42.95741394 43.74197723 44.11795288 44.14231873 45.31365967 C44.50261673 46.39447815 44.86291473 47.47529663 45.23413086 48.58886719 C45.55167831 49.53928894 45.86922577 50.48971069 46.19639587 51.46893311 C46.88417615 53.6351961 47.48140029 55.78814737 48 58 C50.06517915 51.83007691 52.12788219 45.65932984 54.18896484 39.48803711 C54.88860669 37.3941021 55.58878972 35.30034782 56.28955078 33.20678711 C57.30387721 30.17610708 58.31617523 27.14475556 59.328125 24.11328125 C59.63558655 23.19605789 59.9430481 22.27883453 60.25982666 21.33381653 C62.62097925 14.25095319 64.80253411 7.14176416 67 0 C76.57 0 86.14 0 96 0 C94.71997459 5.76011434 93.60094215 10.5178983 91.56079102 15.89550781 C91.32457535 16.52323593 91.08835968 17.15096405 90.84498596 17.79771423 C90.07040474 19.85175669 89.28723816 21.9024056 88.50390625 23.953125 C87.94965886 25.41758465 87.39595453 26.88224993 86.84275818 28.34710693 C85.38432714 32.20460344 83.91858292 36.05928003 82.45123291 39.91339111 C81.00020433 43.7283576 79.55599431 47.54590192 78.11132812 51.36328125 C76.40530695 55.87041126 74.69759079 60.37686998 72.98233032 64.88049316 C70.52250757 71.33997475 68.0666391 77.80027578 65.66369343 84.28117752 C64.68545087 86.91906819 63.70155324 89.55483484 62.7174511 92.19054413 C62.05522455 93.97187799 61.4016337 95.75641504 60.74842834 97.54107666 C55.97241477 110.31454443 50.61655837 122.09909496 38.1875 128.875 C27.97007547 133.47128824 17.94508043 133.36986468 7 132 C6.34 131.67 5.68 131.34 5 131 C5 124.07 5 117.14 5 110 C7.000625 110.061875 9.00125 110.12375 11.0625 110.1875 C18.17789198 110.17204855 22.04146989 109.33930288 27.6875 104.875 C31.0843213 100.65192487 34.29936863 95.96455831 33.73402405 90.36611938 C32.84482491 86.28839131 31.42909205 82.61981996 29.85717773 78.76318359 C29.53516388 77.95918625 29.21315002 77.1551889 28.88137817 76.326828 C28.18450586 74.58902578 27.48488377 72.85232423 26.78280449 71.11661911 C25.6721484 68.37013488 24.56921766 65.62066163 23.46827698 62.87026978 C20.7339112 56.04355744 17.98719021 49.22183441 15.23925781 42.40057373 C12.91433173 36.62851133 10.5948629 30.85431909 8.2830677 25.07698441 C7.19608171 22.36707065 6.10102138 19.66051113 5.00572205 16.95394897 C4.34120728 15.29547532 3.67708766 13.63684326 3.01342773 11.97802734 C2.55292274 10.84957146 2.55292274 10.84957146 2.08311462 9.69831848 C0.69288441 6.19935112 0 3.82055596 0 0 Z " transform="translate(1049,461)" style="fill: #010101;"/><path d="M0 0 C6.82421931 5.37257617 10.10568955 12.68895426 11.32275391 21.18041992 C12.00848162 27.71087674 11.92422462 34.24922365 11.9140625 40.80859375 C11.9147373 42.18339047 11.91570879 43.55818708 11.91696167 44.9329834 C11.91842639 47.79387565 11.91632117 50.65473643 11.91162109 53.515625 C11.90588109 57.18881944 11.90923725 60.86194148 11.91519356 64.53513336 C11.91879564 67.36430413 11.91766298 70.19345751 11.91506577 73.02262878 C11.91439774 74.37827055 11.91522058 75.73391389 11.91754532 77.08955383 C11.92007064 78.97311373 11.91554261 80.85667916 11.91064453 82.74023438 C11.90984894 83.81229126 11.90905334 84.88434814 11.90823364 85.9888916 C11.78125 88.40234375 11.78125 88.40234375 10.78125 89.40234375 C8.85457493 89.48982582 6.92473139 89.50931709 4.99609375 89.5 C3.24135742 89.49516602 3.24135742 89.49516602 1.45117188 89.49023438 C0.21947266 89.48185547 -1.01222656 89.47347656 -2.28125 89.46484375 C-4.13459961 89.45807617 -4.13459961 89.45807617 -6.02539062 89.45117188 C-9.08989117 89.43933983 -12.15429721 89.42285548 -15.21875 89.40234375 C-15.22461624 88.68317276 -15.23048248 87.96400177 -15.23652649 87.22303772 C-15.29467273 80.41206682 -15.36687326 73.60137061 -15.45446491 66.79071903 C-15.49900108 63.29010935 -15.53829269 59.78961156 -15.56518555 56.28881836 C-15.59641317 52.25475498 -15.65119401 48.22129839 -15.70703125 44.1875 C-15.71342117 42.94339859 -15.7198111 41.69929718 -15.72639465 40.41749573 C-15.82506764 29.37307643 -15.82506764 29.37307643 -20.63471985 19.72572327 C-24.4805734 16.51270121 -29.49392433 16.98091848 -34.21875 17.40234375 C-39.15344809 18.92071239 -41.69890529 21.43751212 -44.10888672 25.87817383 C-49.36714384 37.83706524 -47.66380332 53.45456245 -47.84375 66.21484375 C-47.88200419 68.46811283 -47.92106002 70.72136844 -47.9609375 72.97460938 C-48.05760542 78.45044415 -48.13781075 83.92616449 -48.21875 89.40234375 C-56.79875 89.40234375 -65.37875 89.40234375 -74.21875 89.40234375 C-74.21875 58.71234375 -74.21875 28.02234375 -74.21875 -3.59765625 C-67.28875 -3.59765625 -60.35875 -3.59765625 -53.21875 -3.59765625 C-52.55875 -0.29765625 -51.89875 3.00234375 -51.21875 6.40234375 C-50.5896875 5.85964844 -49.960625 5.31695312 -49.3125 4.7578125 C-35.72053388 -6.60294232 -15.48104541 -10.59714418 0 0 Z " transform="translate(903.21875,464.59765625)" style="fill: #020202;"/><path d="M0 0 C30.36 0 60.72 0 92 0 C92 7.59 92 15.18 92 23 C81.44 23 70.88 23 60 23 C60.00523682 25.93318115 60.01047363 28.8663623 60.01586914 31.88842773 C60.0324034 41.55557362 60.04347056 51.22272011 60.05181217 60.88987637 C60.05704146 66.75382164 60.06413994 72.61775249 60.07543945 78.48168945 C60.0862667 84.13561712 60.09227649 89.78953087 60.09487724 95.44346809 C60.09673179 97.6057361 60.10035295 99.76800331 60.10573006 101.93026543 C60.11293833 104.94758657 60.11399103 107.96484943 60.11352539 110.98217773 C60.11712067 111.8856041 60.12071594 112.78903046 60.12442017 113.71983337 C60.11405216 119.88594784 60.11405216 119.88594784 59 121 C50.42 121 41.84 121 33 121 C33 88.66 33 56.32 33 23 C22.44 23 11.88 23 1 23 C-4.42627353 17.57372647 0 7.67390962 0 0 Z " transform="translate(604,433)" style="fill: #020202;"/><path d="M0 0 C5.94 0 11.88 0 18 0 C18.495 8.91 18.495 8.91 19 18 C27.25 18.33 35.5 18.66 44 19 C44 25.6 44 32.2 44 39 C31.625 39.495 31.625 39.495 19 40 C18.9309522 45.85371884 18.87127139 51.70601216 18.83520508 57.55981445 C18.82016276 59.5491211 18.79972377 61.53839483 18.77368164 63.52758789 C18.73709754 66.39477689 18.72022782 69.26152559 18.70703125 72.12890625 C18.69154739 73.01147598 18.67606354 73.89404572 18.66011047 74.80335999 C18.65862732 80.30378105 19.36876013 84.13677313 22 89 C26.43168459 92.22304334 31.89100953 90.70739868 37 90 C39.64 89.67 42.28 89.34 45 89 C45 95.6 45 102.2 45 109 C36.91280616 112.46594022 31.3295316 113.20186799 22.75 113.25 C21.84636719 113.270625 20.94273437 113.29125 20.01171875 113.3125 C12.71843023 113.35447576 6.61871031 112.0560854 0.25 108.4375 C-5.34566071 102.37553423 -8.13295818 94.8424365 -8.11352539 86.68066406 C-8.11344986 85.61986633 -8.11337433 84.5590686 -8.11329651 83.46612549 C-8.10813522 82.32746033 -8.10297394 81.18879517 -8.09765625 80.015625 C-8.0962413 78.84489441 -8.09482635 77.67416382 -8.09336853 76.46795654 C-8.0877709 72.72861171 -8.0752188 68.98932674 -8.0625 65.25 C-8.0574847 62.71484461 -8.05292184 60.17968829 -8.04882812 57.64453125 C-8.03780223 51.42966443 -8.02053919 45.21484237 -8 39 C-11.96 39 -15.92 39 -20 39 C-20.7844523 31.15547703 -20.7844523 31.15547703 -20 27 C-16.80270346 23.39279364 -12.82173731 21.55613664 -8.26171875 20.1640625 C-7.14216797 19.58785156 -7.14216797 19.58785156 -6 19 C-5.25660764 16.75117148 -5.25660764 16.75117148 -5 14 C-4.17595826 11.54408544 -3.33060301 9.11718575 -2.4375 6.6875 C-1.633125 4.480625 -0.82875 2.27375 0 0 Z " transform="translate(1000,442)" style="fill: #030303;"/><path d="M0 0 C0.40997831 20.18004338 0.40997831 20.18004338 -2 25 C-2.75023437 24.96519531 -3.50046875 24.93039062 -4.2734375 24.89453125 C-12.57288687 24.6750244 -20.07805247 25.01590949 -26.875 30.1875 C-32.71515539 37.91711743 -33.59894371 43.88287226 -33.609375 53.375 C-33.62591125 54.5400708 -33.64244751 55.7051416 -33.65948486 56.90551758 C-33.70782552 60.60373277 -33.72930593 64.30153712 -33.75 68 C-33.77817116 70.5169476 -33.80810018 73.03387617 -33.83984375 75.55078125 C-33.91358099 81.7004466 -33.96530512 87.84999706 -34 94 C-38.31248609 94.02886537 -42.62494762 94.04675255 -46.9375 94.0625 C-48.16919922 94.07087891 -49.40089844 94.07925781 -50.66992188 94.08789062 C-51.83974609 94.09111328 -53.00957031 94.09433594 -54.21484375 94.09765625 C-55.84087524 94.10551147 -55.84087524 94.10551147 -57.49975586 94.11352539 C-60 94 -60 94 -61 93 C-61.09522418 90.13908182 -61.12553326 87.30236379 -61.11352539 84.44116211 C-61.11367142 83.54368759 -61.11381744 82.64621307 -61.1139679 81.72154236 C-61.11326842 78.74011866 -61.10547441 75.7587566 -61.09765625 72.77734375 C-61.09579219 70.71611058 -61.09436823 68.65487696 -61.09336853 66.59364319 C-61.08954237 61.1569599 -61.07971126 55.72030314 -61.06866455 50.28363037 C-61.05845253 44.74052286 -61.05387136 39.19741108 -61.04882812 33.65429688 C-61.03808908 22.76951769 -61.02049149 11.8847652 -61 1 C-54.07 1 -47.14 1 -40 1 C-38.68 5.29 -37.36 9.58 -36 14 C-35.01 12.783125 -34.02 11.56625 -33 10.3125 C-24.74967944 0.9144534 -12.36540666 -4.12180222 0 0 Z " transform="translate(763,460)" style="fill: #010101;"/><path d="M0 0 C8.91 0 17.82 0 27 0 C27 30.69 27 61.38 27 93 C1 93 1 93 0 92 C-0.09522418 89.13908182 -0.12553326 86.30236379 -0.11352539 83.44116211 C-0.11367142 82.54368759 -0.11381744 81.64621307 -0.1139679 80.72154236 C-0.11326842 77.74011866 -0.10547441 74.7587566 -0.09765625 71.77734375 C-0.09579219 69.71611058 -0.09436823 67.65487696 -0.09336853 65.59364319 C-0.08954237 60.1569599 -0.07971126 54.72030314 -0.06866455 49.28363037 C-0.05845253 43.74052286 -0.05387136 38.19741108 -0.04882812 32.65429688 C-0.03808908 21.76951769 -0.02049149 10.8847652 0 0 Z " transform="translate(938,461)" style="fill: #000000;"/><path d="M0 0 C8.91 0 17.82 0 27 0 C27.02254967 11.97803894 27.0409143 23.9560639 27.05181217 35.93411922 C27.05704134 41.49539411 27.06413958 47.05665379 27.07543945 52.61791992 C27.08626715 57.98007419 27.09227658 63.34221378 27.09487724 68.70437813 C27.09673171 70.75500278 27.10035272 72.8056266 27.10573006 74.85624504 C27.11293893 77.71790203 27.11399101 80.57949757 27.11352539 83.44116211 C27.11712067 84.29783478 27.12071594 85.15450745 27.12442017 86.03713989 C27.11405216 91.88594784 27.11405216 91.88594784 26 93 C17.42 93 8.84 93 0 93 C0 62.31 0 31.62 0 0 Z " transform="translate(778,461)" style="fill: #010101;"/><path d="M0 0 C2.92423759 3.11289808 3.22168609 5.87278965 3.375 10 C3.23413551 14.12181751 2.80304918 16.81032334 0 20 C-3.9065321 22.84174282 -6.69878418 23.40865338 -11.5 23.375 C-12.6034375 23.38273437 -13.706875 23.39046875 -14.84375 23.3984375 C-18.33396953 22.95784048 -20.19619204 22.08920912 -23 20 C-26.08793418 15.42133897 -26.76030784 11.36498912 -26 6 C-24.65315712 1.80101925 -23.67359021 0.40415413 -19.875 -1.875 C-12.93585523 -4.33444372 -6.30800439 -3.65864255 0 0 Z " transform="translate(963,428)" style="fill: #020202;"/><path d="M0 0 C4.0400454 2.50482815 4.8402253 4.40300106 6.125 8.9375 C6.67496426 14.16216049 6.02741972 17.5338287 3.125 21.9375 C-2.61090566 26.25484834 -8.99837971 25.8151951 -15.875 24.9375 C-18.8002246 23.58858901 -19.78933012 22.49989442 -21.875 19.9375 C-23.61118337 14.72894989 -23.68474082 9.1761952 -21.8125 4 C-16.13872361 -2.03982648 -7.54952995 -2.56429182 0 0 Z " transform="translate(799.875,426.0625)" style="fill: #020202;"/></svg>